<svg width="173" height="148" viewBox="0 0 173 148" fill="none" xmlns="http://www.w3.org/2000/svg">
<g filter="url(#filter0_d_145_208)">
<g opacity="0.8">
<line x1="39.5" y1="136.5" x2="88.5" y2="136.5" stroke="#1F1111" stroke-linecap="round" stroke-dasharray="2 2"/>
<line x1="39.5" y1="136.5" x2="120.5" y2="136.5" stroke="#1F1111" stroke-linecap="round" stroke-dasharray="2 2"/>
<line x1="45.5" y1="139.5" x2="116.5" y2="139.5" stroke="#1F1111" stroke-linecap="round" stroke-dasharray="2 2"/>
<path d="M78.526 82.0688L80.3905 55.5938L82.6278 52.9836V85.4248H77.7803V83.1874C77.7803 82.2925 78.2775 82.0688 78.526 82.0688Z" stroke="#1F1111" stroke-linecap="round" stroke-linejoin="round"/>
<path d="M79.6445 85.4248L80.3903 55.9668" stroke="#1F1111" stroke-linecap="round" stroke-linejoin="round"/>
<path d="M82.6277 30.2375V38.0682L80.3904 37.6953H79.2717C79.1474 36.5766 78.8988 34.041 78.8988 32.8478C78.8988 31.6545 78.4017 30.6104 78.1531 30.2375H82.6277Z" stroke="#1F1111" stroke-linecap="round" stroke-linejoin="round"/>
<path d="M78.153 30.2375C77.5563 29.9391 77.6558 31.6047 77.7801 32.4748L78.5259 40.3054L79.2717 40.6783V35.085C79.2717 33.5934 78.8987 30.6103 78.153 30.2375Z" stroke="#1F1111" stroke-linecap="round" stroke-linejoin="round"/>
<path d="M81.1362 6.74577L85.5043 6H89.4463L93.8144 6.74577" stroke="#1F1111" stroke-linecap="round" stroke-linejoin="round"/>
<path d="M84.865 15.3221V8.61019L85.9836 8.2373H89.7125L90.8312 8.61019V15.3221" stroke="#1F1111" stroke-linecap="round" stroke-linejoin="round"/>
<path d="M93.8144 14.9494V6.74585L90.8313 8.30842M81.1362 14.9494V6.74585L84.408 8.30842" stroke="#1F1111" stroke-linecap="round" stroke-linejoin="round"/>
<path d="M129.984 118.612H127.001L125.137 121.968" stroke="#1F1111" stroke-linecap="round" stroke-linejoin="round"/>
<path d="M113.95 56.7125L103.136 44.4072" stroke="#1F1111" stroke-linecap="round" stroke-linejoin="round"/>
<path d="M130.357 44.7798L131.849 42.9154C131.103 41.5482 129.705 39.5972 127.747 38.8139C124.95 37.6953 122.526 37.6951 120.289 38.8138C117.306 40.3053 116.063 43.2885 115.442 44.0343" stroke="#1F1111" stroke-linecap="round" stroke-linejoin="round"/>
<line x1="134.468" y1="88.1744" x2="134.971" y2="86.1615" stroke="#1F1111" stroke-linecap="round" stroke-linejoin="round"/>
<path d="M87.4753 29.8648C90.9763 29.8648 93.8144 28.4512 93.8144 27.6274V14.5764C92.9443 14.9493 91.2042 16.068 88.2211 16.068C84.8651 16.068 82.5035 15.1979 81.1362 14.9493V27.6274C81.1362 28.4512 83.9743 29.8648 87.4753 29.8648Z" stroke="#1F1111" stroke-linecap="round" stroke-linejoin="round"/>
<ellipse cx="87.4753" cy="20.9156" rx="2.6102" ry="2.98309" transform="rotate(15.8192 87.4753 20.9156)" stroke="#1F1111" stroke-linecap="round" stroke-linejoin="round"/>
<path d="M87.8482 17.9326C87.8482 20.4039 86.8465 22.4073 85.6108 22.4073" stroke="#1F1111" stroke-linecap="round" stroke-linejoin="round"/>
<line x1="78.7594" y1="82.4327" x2="79.2626" y2="84.4456" stroke="#1F1111" stroke-linecap="round" stroke-linejoin="round"/>
<path d="M51.3052 125.122C59.0281 131.998 72.013 136.51 86.7294 136.51C105.704 136.51 122.899 129.052 127.374 117.866C127.374 114.51 127.296 107.885 127.374 105.188" stroke="#1F1111" stroke-linecap="round" stroke-linejoin="round"/>
<path d="M50.5596 113.258C57.2842 119.535 70.9663 123.832 86.7511 123.832C109.187 123.832 127.374 115.151 127.374 104.442C127.374 94.5742 111.93 86.4278 91.95 85.2095M58.6842 90.4244C65.0453 87.5218 73.3787 85.5959 82.6278 85.1509" stroke="#1F1111" stroke-linecap="round" stroke-linejoin="round"/>
<path d="M58.39 92.5097L61.0361 90.7566C66.79 88.129 74.2936 86.3684 82.6276 85.9141M51.3052 108.917L53.5425 111.834C59.7449 117.628 72.3642 121.595 86.923 121.595C107.616 121.595 124.391 113.581 124.391 103.696C124.391 94.6871 110.457 87.2326 92.3227 85.9822" stroke="#1F1111" stroke-linecap="round" stroke-linejoin="round"/>
<path d="M122.154 98.1028C127.747 109.289 105.771 119.357 89.3397 119.357C70.6953 119.357 56.8985 114.883 52.051 105.188" stroke="#1F1111" stroke-linecap="round" stroke-linejoin="round"/>
<path d="M121.408 96.9844C127.001 108.171 105.025 118.239 88.5938 118.239C69.9495 118.239 57.2714 112.646 52.4238 102.951" stroke="#1F1111" stroke-linecap="round" stroke-linejoin="round"/>
<path d="M92.3228 86.7541C106.309 87.8959 116.933 93.5443 116.933 100.34C116.933 107.96 103.578 114.137 87.1024 114.137C70.6272 114.137 57.2715 107.96 57.2715 100.34C57.2715 93.424 68.2753 87.6963 82.6278 86.6978" stroke="#1F1111" stroke-linecap="round" stroke-linejoin="round"/>
<path d="M116.933 101.459C116.933 109.285 103.578 115.629 87.1024 115.629C70.6272 115.629 57.2715 109.285 57.2715 101.459" stroke="#1F1111" stroke-linecap="round" stroke-linejoin="round"/>
<line x1="35.5" y1="133.5" x2="44.5" y2="133.5" stroke="#1F1111" stroke-linecap="round" stroke-dasharray="2 2"/>
<line x1="30.5" y1="130.5" x2="42.5" y2="130.5" stroke="#1F1111" stroke-linecap="round" stroke-dasharray="2 2"/>
<line x1="116.5" y1="130.5" x2="129.5" y2="130.5" stroke="#1F1111" stroke-linecap="round" stroke-dasharray="2 2"/>
<line x1="120.5" y1="127.5" x2="131.5" y2="127.5" stroke="#1F1111" stroke-linecap="round" stroke-dasharray="2 2"/>
<line x1="27.5" y1="127.5" x2="41.5" y2="127.5" stroke="#1F1111" stroke-linecap="round" stroke-dasharray="2 2"/>
<line x1="24.5" y1="124.5" x2="39.5" y2="124.5" stroke="#1F1111" stroke-linecap="round" stroke-dasharray="2 2"/>
<line x1="57.5" y1="133.5" x2="69.5" y2="133.5" stroke="#1F1111" stroke-linecap="round" stroke-dasharray="2 2"/>
<line x1="108.5" y1="133.5" x2="124.5" y2="133.5" stroke="#1F1111" stroke-linecap="round" stroke-dasharray="2 2"/>
<line x1="22.5" y1="121.5" x2="38.5" y2="121.5" stroke="#1F1111" stroke-linecap="round" stroke-dasharray="2 2"/>
<line x1="21.5" y1="118.5" x2="38.5" y2="118.5" stroke="#1F1111" stroke-linecap="round" stroke-dasharray="2 2"/>
<line x1="21.5" y1="115.5" x2="38.5" y2="115.5" stroke="#1F1111" stroke-linecap="round" stroke-dasharray="2 2"/>
<line x1="22.5" y1="112.5" x2="38.5" y2="112.5" stroke="#1F1111" stroke-linecap="round" stroke-dasharray="2 2"/>
<line x1="23.5" y1="109.5" x2="39.5" y2="109.5" stroke="#1F1111" stroke-linecap="round" stroke-dasharray="2 2"/>
<line x1="25.5" y1="106.5" x2="38.5" y2="106.5" stroke="#1F1111" stroke-linecap="round" stroke-dasharray="2 2"/>
<line x1="28.5" y1="103.5" x2="39.5" y2="103.5" stroke="#1F1111" stroke-linecap="round" stroke-dasharray="2 2"/>
<line x1="69.5" y1="106.5" x2="83.5" y2="106.5" stroke="#1F1111" stroke-linecap="round" stroke-dasharray="2 2"/>
<line x1="74.5" y1="109.5" x2="83.5" y2="109.5" stroke="#1F1111" stroke-linecap="round" stroke-dasharray="2 2"/>
<line x1="92.5" y1="109.5" x2="98.5" y2="109.5" stroke="#1F1111" stroke-linecap="round" stroke-dasharray="2 2"/>
<line x1="92.5" y1="106.5" x2="106.5" y2="106.5" stroke="#1F1111" stroke-linecap="round" stroke-dasharray="2 2"/>
<line x1="73.5" y1="103.5" x2="83.5" y2="103.5" stroke="#1F1111" stroke-linecap="round" stroke-dasharray="2 2"/>
<line x1="91.5" y1="103.5" x2="101.5" y2="103.5" stroke="#1F1111" stroke-linecap="round" stroke-dasharray="2 2"/>
<path d="M124.018 45.1533V49.628C123.769 49.7523 123.272 50.2992 123.272 51.4924C123.272 52.9839 124.064 63.4427 126.255 69.3909C128.866 76.4758 133.713 84.6793 135.205 85.7979C136.696 86.9166 139.306 95.8659 139.306 98.849C139.306 101.235 139.306 108.171 138.188 113.392" stroke="#1F1111" stroke-linecap="round" stroke-linejoin="round"/>
<path d="M118.798 81.6961L122.154 86.5436M124.018 89.1539C125.883 92.2612 129.761 99.2964 130.357 102.578C130.954 105.859 131.103 109.414 131.103 110.781C131.103 114.982 130.357 118.612 128.866 121.968H125.137L124.018 124.205C124.888 125.2 127.076 127.188 128.866 127.188C131.103 127.188 131.476 127.561 133.34 125.324C135.205 123.087 137.815 114.883 138.188 112.646C138.561 110.408 139.306 105.561 138.188 99.9676C137.293 95.4929 135.578 90.3968 134.832 88.4081C133.589 87.2894 132.595 86.5436 131.103 84.3063C130.357 83.1877 127.766 78.5746 125.883 73.8655C123.645 68.2719 122.154 60.4416 122.154 54.8483C122.154 50.3737 122.527 46.7688 122.899 45.5258L130.357 44.7804C129.86 43.4131 127.3 40.231 124.018 39.9327C119.916 39.5598 117.679 40.6784 115.815 43.6615C114.323 46.048 114.199 55.9669 113.95 61.1873" stroke="#1F1111" stroke-linecap="round" stroke-linejoin="round"/>
<path d="M100.153 45.5259L124.391 74.2381M94.5601 51.8649L115.069 75.7297M61.0003 85.0518L58.3901 89.8994" stroke="#1F1111" stroke-linecap="round" stroke-linejoin="round"/>
<path d="M64.3562 65.289C64.3562 63.1759 64.2816 58.8753 63.9833 57.0855C63.685 55.2956 63.3619 54.8481 63.2376 54.8481H56.1527C56.1527 58.577 56.1527 62.6788 56.1527 64.1703C56.1527 67.8992 55.407 75.3569 53.1696 80.5773C51.3798 84.7536 47.5763 91.391 45.7119 95.4928C44.5932 98.103 42.7288 104.815 42.3559 108.917C41.9508 113.373 42.6045 118.239 42.7288 120.103C42.7288 120.476 42.878 121.297 43.4746 121.595M43.4746 121.595C44.0712 121.893 48.695 120.476 50.9323 119.73M43.4746 121.595C43.7232 122.838 44.5187 126.144 45.7119 129.425C47.2035 133.527 49.0679 136.51 49.8137 136.883" stroke="#1F1111" stroke-linecap="round" stroke-linejoin="round"/>
<path d="M51.6781 48.8821L52.4239 52.6109C53.0453 53.2324 54.2137 55.3703 53.9154 58.95C53.5425 63.4246 51.6781 76.1028 50.5594 78.3401C49.6645 80.13 45.4633 89.5267 43.4746 94.0013C42.6045 96.2386 40.7152 101.907 40.1186 106.679C39.522 111.452 39.87 116.872 40.1186 118.985L39 117.866C39.87 120.973 41.983 127.785 43.4746 130.171C45.1545 132.859 48.2887 137.824 52.051 136.883C54.4375 136.287 57.52 132.16 58.763 130.171C58.1415 129.923 56.5257 129.798 55.0341 130.171C53.4756 130.561 52.9211 130.917 52.7968 130.917C52.2996 129.177 51.2307 125.175 50.9324 123.086C50.6341 120.998 50.8081 119.979 50.9324 119.73C50.6838 119.482 50.1866 118.836 50.1866 118.239C50.1866 117.493 50.5595 107.425 52.7968 101.832C54.5866 97.3573 55.5313 95.4929 55.7799 95.12" stroke="#1F1111" stroke-linecap="round" stroke-linejoin="round"/>
<path d="M56.5257 54.1023H64.3563C63.8591 50.2492 61.7461 42.4683 57.2715 42.1699C52.7968 41.8716 49.6894 46.5203 48.6951 48.8819H55.7799L56.5257 54.1023Z" stroke="#1F1111" stroke-linecap="round" stroke-linejoin="round"/>
<path d="M56.8985 42.1697L51.3052 41.051C50.0623 41.4239 48.695 41.4239 46.8306 43.2883C45.6006 44.5183 44.8419 46.3957 44.5933 46.6443L48.695 48.8816" stroke="#1F1111" stroke-linecap="round" stroke-linejoin="round"/>
<path d="M48.3223 75.7295L52.0511 72.3735L51.3054 74.6109C51.0568 74.6109 50.4104 74.9837 49.8138 76.4753C49.2172 77.9668 49.5652 80.0799 49.8138 80.9499L49.068 82.0686L48.3223 81.6957V75.7295Z" stroke="#1F1111" stroke-linecap="round" stroke-linejoin="round"/>
<path d="M71.4411 45.5259L63.9834 56.3396" stroke="#1F1111" stroke-linecap="round" stroke-linejoin="round"/>
<path d="M76.6615 47.3901L55.407 77.9668M82.2548 52.6105L64.3563 79.4584" stroke="#1F1111" stroke-linecap="round" stroke-linejoin="round"/>
<path d="M78.153 41.0513L75.5428 39.9326L72.9326 42.5428" stroke="#1F1111" stroke-linecap="round" stroke-linejoin="round"/>
<path d="M70.3225 46.6444V42.9155L74.0514 39.5596L75.5429 39.9325" stroke="#1F1111" stroke-linecap="round" stroke-linejoin="round"/>
<path d="M79.6446 43.6617C79.396 43.6617 78.0039 43.7363 77.4073 44.0346C76.8106 44.3329 76.6615 45.1533 76.6615 45.5262V47.0177L74.4242 50.0008L71.814 49.255C71.814 48.1364 71.814 45.6007 71.814 44.4075C71.814 43.2143 72.5597 42.6674 72.9326 42.5431L80.7632 40.6786L81.509 38.4412H82.7675C82.6277 39.187 82.2548 39.9329 82.7675 41.0515C83.6037 42.876 87.8481 42.7126 89.7125 42.5431C90.4583 42.4753 92.6956 41.4244 92.3227 39.5601C92.2191 39.042 92.3227 38.8141 91.9498 38.0684C93.0685 38.4413 93.4414 38.8141 93.4414 38.8141C93.4414 38.8141 94.3825 39.6133 95.3058 40.3057L96.0516 40.6786H101.272C101.769 40.6786 102.764 41.0515 102.764 42.5431C102.764 44.0346 102.764 46.3962 102.764 47.3906L102.391 47.7635L100.526 45.5262C100.651 44.6561 100.75 42.916 100.153 42.916C99.5567 42.916 99.5008 43.9103 99.5474 44.4075V45.5262" stroke="#1F1111" stroke-linecap="round" stroke-linejoin="round"/>
<path d="M85.2379 43.2883L83.0006 42.5425H80.3904L77.0344 47.0171L78.1531 52.2375H79.2717" stroke="#1F1111" stroke-linecap="round" stroke-linejoin="round"/>
<path d="M91.577 42.5431L93.8143 41.7974H96.4245L99.7805 46.272L98.6619 51.4924H96.7974" stroke="#1F1111" stroke-linecap="round" stroke-linejoin="round"/>
<path d="M81.1362 43.2888L85.2379 43.6617L85.9837 48.8821L83.3735 52.611L79.2717 52.2381L78.1531 47.3906L81.1362 43.2888Z" stroke="#1F1111" stroke-linecap="round" stroke-linejoin="round"/>
<path d="M61.0003 76.1028L64.3563 78.3404L63.6105 83.5608L59.1359 86.171L55.5561 83.7771L56.2349 78.8487L61.0003 76.1028Z" stroke="#1F1111" stroke-linecap="round" stroke-linejoin="round"/>
<path d="M117.964 72.1191L114.608 74.3568L115.354 79.5772L119.828 82.1874L123.408 79.7934L122.729 74.865L117.964 72.1191Z" stroke="#1F1111" stroke-linecap="round" stroke-linejoin="round"/>
<path d="M63.2377 77.594L59.8817 75.3567L55.4071 77.9671L54.2885 83.1875L58.0173 85.4248" stroke="#1F1111" stroke-linecap="round" stroke-linejoin="round"/>
<path d="M115.766 73.5444L119.117 71.2935L123.615 73.965L124.764 79.2653L121.039 81.5142" stroke="#1F1111" stroke-linecap="round" stroke-linejoin="round"/>
<path d="M94.9329 42.5425L90.8312 42.9154L90.0854 48.1358L92.6956 51.8646L96.7974 51.4918L97.916 46.6442L94.9329 42.5425Z" stroke="#1F1111" stroke-linecap="round" stroke-linejoin="round"/>
<path d="M83.3735 90.4314C72.3548 91.2937 63.9834 95.5692 63.9834 100.714C63.9834 106.48 74.5011 111.154 87.4752 111.154C100.449 111.154 110.967 106.48 110.967 100.714C110.967 95.5692 102.596 91.2937 91.577 90.4314" stroke="#1F1111" stroke-linecap="round" stroke-linejoin="round"/>
<path d="M106.305 106.306C103.19 103.393 97.7282 101.291 90.8312 100.815M84.1192 100.713C77.2222 101.189 71.7602 103.393 68.6455 106.306" stroke="#1F1111" stroke-linecap="round" stroke-linejoin="round"/>
<path d="M90.8311 100.713V108.677C90.8311 109.633 89.3286 110.408 87.4751 110.408C85.6217 110.408 84.1191 109.633 84.1191 108.677V100.713" stroke="#1F1111" stroke-linecap="round" stroke-linejoin="round"/>
<path d="M91.577 99.2214C91.577 100.045 89.7406 100.713 87.4753 100.713C85.21 100.713 83.3735 100.045 83.3735 99.2214" stroke="#1F1111" stroke-linecap="round" stroke-linejoin="round"/>
<path d="M91.577 88.781C91.577 89.6048 89.7406 90.2726 87.4753 90.2726C85.21 90.2726 83.3735 89.6048 83.3735 88.781" stroke="#1F1111" stroke-linecap="round" stroke-linejoin="round"/>
<path d="M91.577 78.3398C91.577 79.1636 89.7406 79.8314 87.4753 79.8314C85.21 79.8314 83.3735 79.1636 83.3735 78.3398" stroke="#1F1111" stroke-linecap="round" stroke-linejoin="round"/>
<path d="M91.577 67.8989C91.577 68.7227 89.7406 69.3905 87.4753 69.3905C85.21 69.3905 83.3735 68.7227 83.3735 67.8989" stroke="#1F1111" stroke-linecap="round" stroke-linejoin="round"/>
<path d="M91.577 57.4585C91.577 58.2823 89.7406 58.95 87.4753 58.95C85.21 58.95 83.3735 58.2823 83.3735 57.4585" stroke="#1F1111" stroke-linecap="round" stroke-linejoin="round"/>
<path d="M91.577 40.3057C91.577 41.1294 89.7406 41.7972 87.4753 41.7972C85.21 41.7972 83.3735 41.1294 83.3735 40.3057" stroke="#1F1111" stroke-linecap="round" stroke-linejoin="round"/>
<path d="M91.577 97.73C91.577 98.5537 89.7406 99.2215 87.4753 99.2215C85.21 99.2215 83.3735 98.5537 83.3735 97.73" stroke="#1F1111" stroke-linecap="round" stroke-linejoin="round"/>
<path d="M91.577 87.2891C91.577 88.1128 89.7406 88.7806 87.4753 88.7806C85.21 88.7806 83.3735 88.1128 83.3735 87.2891" stroke="#1F1111" stroke-linecap="round" stroke-linejoin="round"/>
<path d="M91.577 76.8484C91.577 77.6721 89.7406 78.3399 87.4753 78.3399C85.21 78.3399 83.3735 77.6721 83.3735 76.8484" stroke="#1F1111" stroke-linecap="round" stroke-linejoin="round"/>
<path d="M91.577 66.4075C91.577 67.2312 89.7406 67.899 87.4753 67.899C85.21 67.899 83.3735 67.2312 83.3735 66.4075" stroke="#1F1111" stroke-linecap="round" stroke-linejoin="round"/>
<path d="M91.577 55.967C91.577 56.7908 89.7406 57.4586 87.4753 57.4586C85.21 57.4586 83.3735 56.7908 83.3735 55.967" stroke="#1F1111" stroke-linecap="round" stroke-linejoin="round"/>
<path d="M91.577 38.8137C91.577 39.6375 89.7406 40.3053 87.4753 40.3053C85.21 40.3053 83.3735 39.6375 83.3735 38.8137" stroke="#1F1111" stroke-linecap="round" stroke-linejoin="round"/>
<path d="M91.577 96.2385C91.577 97.0623 89.7406 97.7301 87.4753 97.7301C85.21 97.7301 83.3735 97.0623 83.3735 96.2385" stroke="#1F1111" stroke-linecap="round" stroke-linejoin="round"/>
<path d="M91.577 85.7974C91.577 86.6211 89.7406 87.2889 87.4753 87.2889C85.21 87.2889 83.3735 86.6211 83.3735 85.7974" stroke="#1F1111" stroke-linecap="round" stroke-linejoin="round"/>
<path d="M91.577 75.3569C91.577 76.1807 89.7406 76.8485 87.4753 76.8485C85.21 76.8485 83.3735 76.1807 83.3735 75.3569" stroke="#1F1111" stroke-linecap="round" stroke-linejoin="round"/>
<path d="M91.577 64.916C91.577 65.7398 89.7406 66.4076 87.4753 66.4076C85.21 66.4076 83.3735 65.7398 83.3735 64.916" stroke="#1F1111" stroke-linecap="round" stroke-linejoin="round"/>
<path d="M91.577 54.4751C91.577 55.2989 89.7406 55.9666 87.4753 55.9666C85.21 55.9666 83.3735 55.2989 83.3735 54.4751" stroke="#1F1111" stroke-linecap="round" stroke-linejoin="round"/>
<path d="M91.577 37.3223C91.577 38.146 89.7406 38.8138 87.4753 38.8138C85.21 38.8138 83.3735 38.146 83.3735 37.3223" stroke="#1F1111" stroke-linecap="round" stroke-linejoin="round"/>
<path d="M91.577 94.7471C91.577 95.5708 89.7406 96.2386 87.4753 96.2386C85.21 96.2386 83.3735 95.5708 83.3735 94.7471" stroke="#1F1111" stroke-linecap="round" stroke-linejoin="round"/>
<path d="M91.577 84.3059C91.577 85.1297 89.7406 85.7975 87.4753 85.7975C85.21 85.7975 83.3735 85.1297 83.3735 84.3059" stroke="#1F1111" stroke-linecap="round" stroke-linejoin="round"/>
<path d="M91.577 73.865C91.577 74.6887 89.7406 75.3565 87.4753 75.3565C85.21 75.3565 83.3735 74.6887 83.3735 73.865" stroke="#1F1111" stroke-linecap="round" stroke-linejoin="round"/>
<path d="M91.577 63.4246C91.577 64.2483 89.7406 64.9161 87.4753 64.9161C85.21 64.9161 83.3735 64.2483 83.3735 63.4246" stroke="#1F1111" stroke-linecap="round" stroke-linejoin="round"/>
<path d="M91.577 52.9834C91.577 53.8072 89.7406 54.4749 87.4753 54.4749C85.21 54.4749 83.3735 53.8072 83.3735 52.9834" stroke="#1F1111" stroke-linecap="round" stroke-linejoin="round"/>
<path d="M91.577 35.8308C91.577 36.6546 89.7406 37.3224 87.4753 37.3224C85.21 37.3224 83.3735 36.6546 83.3735 35.8308" stroke="#1F1111" stroke-linecap="round" stroke-linejoin="round"/>
<path d="M91.577 93.2554C91.577 94.0791 89.7406 94.7469 87.4753 94.7469C85.21 94.7469 83.3735 94.0791 83.3735 93.2554" stroke="#1F1111" stroke-linecap="round" stroke-linejoin="round"/>
<path d="M91.577 82.8145C91.577 83.6382 89.7406 84.306 87.4753 84.306C85.21 84.306 83.3735 83.6382 83.3735 82.8145" stroke="#1F1111" stroke-linecap="round" stroke-linejoin="round"/>
<path d="M91.577 72.3735C91.577 73.1973 89.7406 73.8651 87.4753 73.8651C85.21 73.8651 83.3735 73.1973 83.3735 72.3735" stroke="#1F1111" stroke-linecap="round" stroke-linejoin="round"/>
<path d="M91.577 61.9324C91.577 62.7561 89.7406 63.4239 87.4753 63.4239C85.21 63.4239 83.3735 62.7561 83.3735 61.9324" stroke="#1F1111" stroke-linecap="round" stroke-linejoin="round"/>
<path d="M91.5771 51.4919C91.5771 52.3157 89.7407 52.9835 87.4754 52.9835C85.9571 52.9835 84.6316 52.6835 83.9224 52.2377" stroke="#1F1111" stroke-linecap="round" stroke-linejoin="round"/>
<path d="M91.577 34.3394C91.577 35.1631 89.7406 35.8309 87.4753 35.8309C85.21 35.8309 83.3735 35.1631 83.3735 34.3394" stroke="#1F1111" stroke-linecap="round" stroke-linejoin="round"/>
<path d="M91.577 91.7639C91.577 92.5877 89.7406 93.2555 87.4753 93.2555C85.21 93.2555 83.3735 92.5877 83.3735 91.7639" stroke="#1F1111" stroke-linecap="round" stroke-linejoin="round"/>
<path d="M91.577 81.323C91.577 82.1468 89.7406 82.8145 87.4753 82.8145C85.21 82.8145 83.3735 82.1468 83.3735 81.323" stroke="#1F1111" stroke-linecap="round" stroke-linejoin="round"/>
<path d="M91.577 70.8823C91.577 71.7061 89.7406 72.3739 87.4753 72.3739C85.21 72.3739 83.3735 71.7061 83.3735 70.8823" stroke="#1F1111" stroke-linecap="round" stroke-linejoin="round"/>
<path d="M91.577 60.4414C91.577 61.2652 89.7406 61.933 87.4753 61.933C85.21 61.933 83.3735 61.2652 83.3735 60.4414" stroke="#1F1111" stroke-linecap="round" stroke-linejoin="round"/>
<path d="M91.204 50.3735C90.8311 51.1193 88.5153 51.4922 87.4751 51.4922C86.4348 51.4922 85.485 51.3514 84.762 51.1193" stroke="#1F1111" stroke-linecap="round" stroke-linejoin="round"/>
<path d="M91.577 32.8477C91.577 33.6714 89.7406 34.3392 87.4753 34.3392C85.21 34.3392 83.3735 33.6714 83.3735 32.8477" stroke="#1F1111" stroke-linecap="round" stroke-linejoin="round"/>
<path d="M91.577 90.2725C91.577 91.0962 89.7406 91.764 87.4753 91.764C85.21 91.764 83.3735 91.0962 83.3735 90.2725" stroke="#1F1111" stroke-linecap="round" stroke-linejoin="round"/>
<path d="M91.577 79.8315C91.577 80.6553 89.7406 81.3231 87.4753 81.3231C85.21 81.3231 83.3735 80.6553 83.3735 79.8315" stroke="#1F1111" stroke-linecap="round" stroke-linejoin="round"/>
<path d="M91.577 69.3909C91.577 70.2146 89.7406 70.8824 87.4753 70.8824C85.21 70.8824 83.3735 70.2146 83.3735 69.3909" stroke="#1F1111" stroke-linecap="round" stroke-linejoin="round"/>
<path d="M91.577 58.95C91.577 59.7737 89.7406 60.4415 87.4753 60.4415C85.21 60.4415 83.3735 59.7737 83.3735 58.95" stroke="#1F1111" stroke-linecap="round" stroke-linejoin="round"/>
<path d="M85.6108 49.8386C86.1702 49.9426 86.8039 50.0013 87.4753 50.0013C88.6506 50.0013 89.7105 49.8215 90.4584 49.5334" stroke="#1F1111" stroke-linecap="round" stroke-linejoin="round"/>
<path d="M91.577 31.3562C91.577 32.18 89.7406 32.8477 87.4753 32.8477C85.21 32.8477 83.3735 32.18 83.3735 31.3562" stroke="#1F1111" stroke-linecap="round" stroke-linejoin="round"/>
<path d="M91.577 29.8647C91.577 30.6885 89.7406 31.3563 87.4753 31.3563C85.21 31.3563 83.3735 30.6885 83.3735 29.8647" stroke="#1F1111" stroke-linecap="round" stroke-linejoin="round"/>
<ellipse cx="82.8311" cy="47.8837" rx="1.73119" ry="2.07742" transform="rotate(14.7709 82.8311 47.8837)" stroke="#1F1111" stroke-linecap="round" stroke-linejoin="round"/>
<ellipse cx="60.2209" cy="81.5359" rx="1.73119" ry="2.07742" transform="rotate(35.0372 60.2209 81.5359)" stroke="#1F1111" stroke-linecap="round" stroke-linejoin="round"/>
<ellipse rx="1.73119" ry="2.07742" transform="matrix(-0.818779 0.574108 0.574108 0.818779 118.743 77.5523)" stroke="#1F1111" stroke-linecap="round" stroke-linejoin="round"/>
<ellipse rx="1.73119" ry="2.07742" transform="matrix(-0.966953 0.254955 0.254955 0.966953 93.238 47.1374)" stroke="#1F1111" stroke-linecap="round" stroke-linejoin="round"/>
<line x1="77.6531" y1="47.5176" x2="77.1615" y2="47.5176" stroke="#1F1111" stroke-linecap="round" stroke-linejoin="round"/>
<line x1="71.5159" y1="43.5124" x2="70.9188" y2="43.2139" stroke="#1F1111" stroke-linecap="round" stroke-linejoin="round"/>
<path d="M57.3026 93.2947C56.2253 95.3233 54.0794 96.1046 52.5779 95.3073C51.0765 94.51 50.5219 92.2946 51.5991 90.266C52.6763 88.2375 54.8223 87.4561 56.3237 88.2534C57.8252 89.0507 58.3798 91.2662 57.3026 93.2947Z" stroke="#1F1111" stroke-linecap="round" stroke-linejoin="round"/>
<path d="M123.849 88.0955C122.275 86.423 122.225 84.1398 123.463 82.9746C124.701 81.8094 126.977 81.9969 128.551 83.6694C130.126 85.3419 130.175 87.6251 128.937 88.7903C127.699 89.9555 125.423 89.768 123.849 88.0955Z" stroke="#1F1111" stroke-linecap="round" stroke-linejoin="round"/>
<path d="M124.659 87.5555C123.603 86.4334 123.603 84.9449 124.385 84.2096C125.166 83.4744 126.651 83.5642 127.708 84.6863C128.764 85.8083 128.764 87.2969 127.982 88.0321C127.201 88.7674 125.716 88.6775 124.659 87.5555Z" stroke="#1F1111" stroke-linecap="round" stroke-linejoin="round"/>
<path d="M57.5672 93.2375C56.2866 95.649 53.5714 96.5958 51.549 95.5219C49.5267 94.448 48.7903 91.6683 50.0709 89.2568C51.3514 86.8453 54.0667 85.8984 56.089 86.9724C58.1114 88.0463 58.8477 90.826 57.5672 93.2375Z" stroke="#1F1111" stroke-linecap="round" stroke-linejoin="round"/>
<path d="M123.818 88.3639C121.947 86.3757 121.924 83.5002 123.591 81.9308C125.258 80.3614 128.127 80.5583 129.999 82.5465C131.87 84.5347 131.893 87.4102 130.226 88.9796C128.558 90.549 125.69 90.3521 123.818 88.3639Z" stroke="#1F1111" stroke-linecap="round" stroke-linejoin="round"/>
<path d="M57.2741 75.3442C56.1237 75.8778 55.0817 76.8449 54.3905 78.1464C53.319 80.1642 53.6565 82.0006 54.6612 83.5601" stroke="#1F1111" stroke-linecap="round" stroke-linejoin="round"/>
<path d="M125.882 73.8657C125.137 72.0011 123.272 70.8357 121.408 70.8356" stroke="#1F1111" stroke-linecap="round" stroke-linejoin="round"/>
<line x1="43.494" y1="118.769" x2="49.9712" y2="117.474" stroke="#1F1111" stroke-linecap="round" stroke-linejoin="round"/>
<path d="M52.051 127.188L53.1697 126.815C53.6669 127.188 54.9595 128.083 56.1528 128.68C57.346 129.276 58.3901 129.923 58.763 130.171" stroke="#1F1111" stroke-linecap="round" stroke-linejoin="round"/>
<line x1="115.144" y1="53.1825" x2="121.606" y2="52.5362" stroke="#1F1111" stroke-linecap="round" stroke-linejoin="round"/>
<line x1="115.144" y1="51.6905" x2="121.606" y2="51.0443" stroke="#1F1111" stroke-linecap="round" stroke-linejoin="round"/>
<line x1="131.603" y1="111.4" x2="138.061" y2="111.4" stroke="#1F1111" stroke-linecap="round" stroke-linejoin="round"/>
<line x1="131.603" y1="109.162" x2="138.061" y2="109.162" stroke="#1F1111" stroke-linecap="round" stroke-linejoin="round"/>
<line x1="65.9749" y1="96.2383" x2="65.9749" y2="104.442" stroke="#1F1111"/>
<line x1="109.976" y1="97.7302" x2="109.976" y2="104.442" stroke="#1F1111"/>
<line x1="67.4666" y1="95.4929" x2="67.4666" y2="105.934" stroke="#1F1111"/>
<line x1="108.484" y1="96.2383" x2="108.484" y2="105.188" stroke="#1F1111"/>
<line x1="68.958" y1="94.0015" x2="68.958" y2="105.934" stroke="#1F1111"/>
<line x1="63.7375" y1="120.103" x2="63.7375" y2="132.035" stroke="#1F1111"/>
<line x1="62.2461" y1="120.103" x2="62.2461" y2="132.035" stroke="#1F1111"/>
<line x1="60.7546" y1="119.358" x2="60.7546" y2="131.29" stroke="#1F1111"/>
<line x1="59.2629" y1="118.612" x2="59.2629" y2="130.544" stroke="#1F1111"/>
<line x1="57.7715" y1="117.866" x2="57.7715" y2="129.798" stroke="#1F1111"/>
<line x1="56.2798" y1="117.12" x2="56.2798" y2="129.052" stroke="#1F1111"/>
<line x1="54.7883" y1="116.375" x2="54.7883" y2="128.307" stroke="#1F1111"/>
<line x1="53.2969" y1="115.628" x2="53.2969" y2="127.561" stroke="#1F1111"/>
<line x1="51.8052" y1="114.137" x2="51.8052" y2="126.07" stroke="#1F1111"/>
<line y1="-0.5" x2="11.9324" y2="-0.5" transform="matrix(4.37114e-08 1 1 -4.37114e-08 107.238 94.7466)" stroke="#1F1111"/>
<line x1="70.4495" y1="93.2551" x2="70.4495" y2="105.187" stroke="#1F1111"/>
<line x1="65.9749" y1="120.849" x2="65.9749" y2="133.527" stroke="#1F1111"/>
<line y1="-0.5" x2="11.9324" y2="-0.5" transform="matrix(4.37114e-08 1 1 -4.37114e-08 105.747 94.0015)" stroke="#1F1111"/>
<line x1="72.6868" y1="92.5093" x2="72.6868" y2="103.696" stroke="#1F1111"/>
<line x1="68.958" y1="121.595" x2="68.958" y2="134.273" stroke="#1F1111"/>
<line x1="102.518" y1="92.5093" x2="102.518" y2="103.696" stroke="#1F1111"/>
<line x1="76.4158" y1="91.7642" x2="76.4158" y2="102.205" stroke="#1F1111"/>
<line x1="73.4326" y1="122.34" x2="73.4326" y2="135.018" stroke="#1F1111"/>
<line x1="126.383" y1="108.917" x2="126.383" y2="120.104" stroke="#1F1111"/>
<line x1="124.891" y1="111.154" x2="124.891" y2="122.341" stroke="#1F1111"/>
<line x1="123.399" y1="112.646" x2="123.399" y2="124.578" stroke="#1F1111"/>
<line x1="121.908" y1="114.137" x2="121.908" y2="125.324" stroke="#1F1111"/>
<line x1="118.925" y1="116.375" x2="118.925" y2="127.561" stroke="#1F1111"/>
<line x1="98.7891" y1="91.7642" x2="98.7891" y2="102.205" stroke="#1F1111"/>
<line x1="80.8904" y1="91.0178" x2="80.8904" y2="101.459" stroke="#1F1111"/>
<line x1="88.3481" y1="123.832" x2="88.3481" y2="136.51" stroke="#1F1111"/>
<line x1="94.3142" y1="91.0178" x2="94.3142" y2="101.459" stroke="#1F1111"/>
</g>
</g>
<defs>
<filter id="filter0_d_145_208" x="-4" y="0" width="181" height="154" filterUnits="userSpaceOnUse" color-interpolation-filters="sRGB">
<feFlood flood-opacity="0" result="BackgroundImageFix"/>
<feColorMatrix in="SourceAlpha" type="matrix" values="0 0 0 0 0 0 0 0 0 0 0 0 0 0 0 0 0 0 127 0" result="hardAlpha"/>
<feOffset dy="4"/>
<feGaussianBlur stdDeviation="2"/>
<feComposite in2="hardAlpha" operator="out"/>
<feColorMatrix type="matrix" values="0 0 0 0 0 0 0 0 0 0 0 0 0 0 0 0 0 0 0.25 0"/>
<feBlend mode="normal" in2="BackgroundImageFix" result="effect1_dropShadow_145_208"/>
<feBlend mode="normal" in="SourceGraphic" in2="effect1_dropShadow_145_208" result="shape"/>
</filter>
</defs>
</svg>
