<svg width="246" height="493" viewBox="0 0 246 493" fill="none" xmlns="http://www.w3.org/2000/svg">
<path d="M-260.762 -34.3355L-127.883 -71.6172L239.573 140.146V273.333L-26.1805 426.776L-393.637 215.013V81.8253L-260.762 -34.3355Z" fill="white"/>
<path d="M-263.125 -35.718L-130.247 -72.9998L-127.882 -71.6174L-260.761 -34.3357L-391.857 80.27L-26.7695 290.684L104.339 176.066L237.218 138.784L239.574 140.146V273.333L-23.3013 425.115L-23.9587 425.495L-26.1795 426.776L-396 213.63V80.447L-263.125 -35.718Z" fill="white" stroke="#AB2421" stroke-width="1.5"/>
<path d="M-26.179 293.588L106.696 177.427L239.574 140.146V273.333L-26.179 426.776V293.588Z" fill="white" stroke="#AB2421" stroke-width="1.5"/>
<path d="M3.0952 277.654V409.876L4.75977 408.911V276.2L3.0952 277.654Z" fill="#AB2421"/>
<path d="M10.8032 270.911V405.422L12.4678 404.461V269.457L10.8032 270.911Z" fill="#AB2421"/>
<path d="M18.5185 264.171V400.966L20.1831 400.006V262.713L18.5185 264.171Z" fill="#AB2421"/>
<path d="M26.2339 257.424V396.512L27.8984 395.555V255.97L26.2339 257.424Z" fill="#AB2421"/>
<path d="M33.9419 250.686V392.062L35.6064 391.101V249.232L33.9419 250.686Z" fill="#AB2421"/>
<path d="M41.6587 243.942V387.611L43.3232 386.646V242.484L41.6587 243.942Z" fill="#AB2421"/>
<path d="M49.3725 237.199V383.157L51.0371 382.192V235.741L49.3725 237.199Z" fill="#AB2421"/>
<path d="M57.0806 230.456V378.702L58.7451 377.741V229.002L57.0806 230.456Z" fill="#AB2421"/>
<path d="M64.7993 223.712V374.247L66.4639 373.286V222.258L64.7993 223.712Z" fill="#AB2421"/>
<path d="M72.5146 216.969V369.792L74.1792 368.827V215.511L72.5146 216.969Z" fill="#AB2421"/>
<path d="M80.2222 210.226V365.337L81.8867 364.381V208.772L80.2222 210.226Z" fill="#AB2421"/>
<path d="M87.9365 203.483V360.887L89.6011 359.926V202.029L87.9365 203.483Z" fill="#AB2421"/>
<path d="M95.6506 196.735V356.432L97.3193 355.471V195.281L95.6506 196.735Z" fill="#AB2421"/>
<path d="M103.363 190V351.981L105.027 351.016V188.546L103.363 190Z" fill="#AB2421"/>
<path d="M111.077 185.858V347.527L112.741 346.562V185.39L111.077 185.858Z" fill="#AB2421"/>
<path d="M118.789 183.691V343.072L120.454 342.111V183.223L118.789 183.691Z" fill="#AB2421"/>
<path d="M126.499 181.525V338.617L128.163 337.661V181.057L126.499 181.525Z" fill="#AB2421"/>
<path d="M134.218 179.362V334.162L135.883 333.205V178.895L134.218 179.362Z" fill="#AB2421"/>
<path d="M141.926 177.197V329.712L143.591 328.751V176.729L141.926 177.197Z" fill="#AB2421"/>
<path d="M149.64 175.035V325.257L151.305 324.296V174.567L149.64 175.035Z" fill="#AB2421"/>
<path d="M157.351 172.868V320.802L159.02 319.846V172.405L157.351 172.868Z" fill="#AB2421"/>
<path d="M165.068 170.702V316.348L166.732 315.391V170.239L165.068 170.702Z" fill="#AB2421"/>
<path d="M172.78 168.544V311.901L174.445 310.936V168.076L172.78 168.544Z" fill="#AB2421"/>
<path d="M180.49 166.378V307.446L182.154 306.481V165.91L180.49 166.378Z" fill="#AB2421"/>
<path d="M188.208 164.216V302.992L189.873 302.027V163.749L188.208 164.216Z" fill="#AB2421"/>
<path d="M195.923 162.05V298.537L197.583 297.581V161.582L195.923 162.05Z" fill="#AB2421"/>
<path d="M203.63 159.887V294.082L205.294 293.125V159.419L203.63 159.887Z" fill="#AB2421"/>
<path d="M211.346 157.721V289.628L213.01 288.671V157.253L211.346 157.721Z" fill="#AB2421"/>
<path d="M219.061 155.554V285.176L220.721 284.216V155.091L219.061 155.554Z" fill="#AB2421"/>
<path d="M226.772 153.393V280.722L228.437 279.762V152.925L226.772 153.393Z" fill="#AB2421"/>
<path d="M234.486 151.226V276.267L236.151 275.306V150.759L234.486 151.226Z" fill="#AB2421"/>
<path d="M-263.525 -35.7178L105.869 177.428L238.748 140.146L-131.072 -72.9995L-263.525 -35.7178Z" fill="white" stroke="#AB2421" stroke-width="1.5" stroke-linejoin="round"/>
<path d="M226.416 132.26L227.996 133.17L94.9994 170.115L93.4149 169.204L226.416 132.26Z" fill="#AB2421"/>
<path d="M212.519 124.249L214.103 125.163L81.1021 162.108L79.526 161.202L212.519 124.249Z" fill="#AB2421"/>
<path d="M198.629 116.24L200.206 117.151L67.2131 154.104L65.6286 153.189L198.629 116.24Z" fill="#AB2421"/>
<path d="M184.729 108.232L186.309 109.143L53.3082 146.092L51.7321 145.185L184.729 108.232Z" fill="#AB2421"/>
<path d="M170.837 100.226L172.413 101.136L39.4164 138.08L37.8318 137.17L170.837 100.226Z" fill="#AB2421"/>
<path d="M156.937 92.218L158.521 93.1283L25.5163 130.073L23.9403 129.163L156.937 92.218Z" fill="#AB2421"/>
<path d="M143.045 84.2061L144.625 85.1206L11.6283 122.069L10.0438 121.155L143.045 84.2061Z" fill="#AB2421"/>
<path d="M129.146 76.1975L130.726 77.1078L-2.27066 114.057L-3.85094 113.146L129.146 76.1975Z" fill="#AB2421"/>
<path d="M115.253 68.1909L116.833 69.1013L-16.1679 106.054L-17.7482 105.14L115.253 68.1909Z" fill="#AB2421"/>
<path d="M101.359 60.1836L102.935 61.0939L-30.0616 98.0469L-31.6419 97.1281L101.359 60.1836Z" fill="#AB2421"/>
<path d="M87.4562 52.1709L89.0449 53.0855L-43.9602 90.03L-45.5405 89.1197L87.4562 52.1709Z" fill="#AB2421"/>
<path d="M73.565 44.1638L75.1411 45.0742L-57.8556 82.0229L-59.4317 81.1126L73.565 44.1638Z" fill="#AB2421"/>
<path d="M59.6679 36.1558L61.2524 37.0661L-71.7485 74.0149L-73.3288 73.1045L59.6679 36.1558Z" fill="#AB2421"/>
<path d="M45.7747 28.1489L47.355 29.0593L-85.6417 66.008L-87.2262 65.0977L45.7747 28.1489Z" fill="#AB2421"/>
<path d="M31.8774 20.1406L33.4619 21.051L-99.539 57.9997L-101.119 57.0894L31.8774 20.1406Z" fill="#AB2421"/>
<path d="M17.9869 12.1323L19.563 13.0385L-113.434 49.9872L-115.018 49.0769L17.9869 12.1323Z" fill="#AB2421"/>
<path d="M4.08349 4.12158L5.66797 5.03192L-127.333 41.9807L-128.913 41.0703L4.08349 4.12158Z" fill="#AB2421"/>
<path d="M200.236 217.873V277.438L155.288 303.393V243.828L200.236 217.873Z" fill="white"/>
<path opacity="0.4" d="M155.288 243.828L200.236 217.873V277.438L155.288 253.559V243.828Z" fill="#AB2421"/>
<path d="M151.139 330.152L210.409 295.932V283.312L151.139 317.532V330.152Z" fill="white"/>
<path d="M216.347 185.455L225.489 190.677V292.063L214.558 298.373L210.411 295.932V283.312L200.236 277.438V217.873L155.288 243.828V332.589L144.358 338.899L135.22 333.681V232.295L216.347 185.455Z" fill="white" stroke="#AB2421" stroke-width="1.5"/>
<path d="M144.357 237.518V338.9L135.22 333.681V232.295L144.357 237.518Z" fill="#AB2421" stroke="#AB2421" stroke-width="1.5"/>
<path d="M225.489 190.677V292.063L214.558 298.374V209.608L210.411 212.003L155.288 243.828V332.59L144.358 338.9V237.518L225.489 190.677Z" fill="white" stroke="#AB2421" stroke-width="1.5"/>
<path d="M200.234 277.438L210.409 283.312V295.933L155.287 327.758V315.133V303.393L200.234 277.438Z" fill="#AB2421"/>
<path opacity="0.6" d="M155.287 315.137L210.409 283.312V295.932L155.287 327.757V315.137Z" fill="#AB2421"/>
<path d="M205.882 280.697L155.288 309.911V306.64L203.051 279.062L205.882 280.697Z" fill="white"/>
<path d="M196.149 304.164L205.789 298.601L205.793 298.593L210.409 290.602V283.312L207.084 285.238H207.076L196.149 304.164Z" fill="white"/>
<path d="M177.306 315.045L186.946 309.478H186.95L197.88 290.548L188.241 296.115H188.232L177.306 315.045Z" fill="white"/>
<path d="M158.462 325.926L168.097 320.359H168.105L179.036 301.425L169.392 306.996L169.388 307L158.462 325.926Z" fill="white"/>
<path d="M155.287 315.136V320.799L160.194 312.309L155.287 315.136Z" fill="white"/>
<path d="M155.287 243.833L209.434 212.573V282.765L155.287 314.029V243.833Z" fill="#AB2421"/>
<path opacity="0.4" d="M155.287 243.833L209.434 212.573V215.533L155.287 246.793V243.833Z" fill="#AB2421"/>
<path d="M195.926 281.453L186.266 235.409L178.27 240.026L168.635 297.211L177.552 292.064L179.391 279.962L185.228 276.591L186.968 286.629L195.926 281.453ZM184.601 270.526L179.981 273.195L182.243 252.733L184.601 270.526Z" fill="white"/>
<path d="M84.334 284.731V344.296L39.3866 370.251V310.686L84.334 284.731Z" fill="white"/>
<path opacity="0.4" d="M39.3866 310.686L84.334 284.731V344.296L39.3866 320.417V310.686Z" fill="#AB2421"/>
<path d="M35.2375 397.01L94.5073 362.79V350.17L35.2375 384.39V397.01Z" fill="white"/>
<path d="M100.444 252.313L109.585 257.536V358.922L98.6548 365.232L94.5075 362.791V350.17L84.3324 344.296V284.732L39.3849 310.686V399.448L28.4543 405.758L19.317 400.54V299.154L100.444 252.313Z" fill="white" stroke="#AB2421" stroke-width="1.5"/>
<path d="M28.4546 304.376V405.758L19.3173 400.539V299.153L28.4546 304.376Z" fill="#AB2421"/>
<path d="M84.3322 344.295L94.5073 350.17V362.79L39.3848 394.615V381.99V370.25L84.3322 344.295Z" fill="#AB2421"/>
<path opacity="0.6" d="M39.3848 381.994L94.5073 350.17V362.79L39.3848 394.615V381.994Z" fill="#AB2421"/>
<path d="M89.9785 347.555L39.3852 376.769V373.497L87.1472 345.924L89.9785 347.555Z" fill="white"/>
<path d="M93.5312 266.802V295.256L39.3843 326.516V298.062L93.5312 266.802Z" fill="#AB2421"/>
<path d="M80.2457 371.022L89.8853 365.459L89.8895 365.451L94.5059 357.46V350.17L91.1806 352.096H91.1723L80.2457 371.022Z" fill="white"/>
<path d="M61.4016 381.904L71.0412 376.337H71.0454L81.9761 357.406L72.3323 362.974H72.3282L61.4016 381.904Z" fill="white"/>
<path d="M42.5574 392.785L52.1928 387.218H52.197L63.1318 368.283L53.4881 373.854L53.4839 373.858L42.5574 392.785Z" fill="white"/>
<path d="M39.3826 381.995V387.658L44.2896 379.168L39.3826 381.995Z" fill="white"/>
<g opacity="0.3">
<path opacity="0.3" d="M93.5317 294.396V295.255L39.3848 326.516V325.656L93.5317 294.396Z" fill="#AB2421"/>
<path opacity="0.3" d="M39.3848 322.879L93.5317 291.623V292.482L39.3848 323.742V322.879Z" fill="#AB2421"/>
<path opacity="0.3" d="M39.3848 320.106L93.5317 288.85V289.709L39.3848 320.97V320.106Z" fill="#AB2421"/>
<path opacity="0.3" d="M39.3848 317.333L93.5317 286.077V286.936L39.3848 318.196V317.333Z" fill="#AB2421"/>
<path opacity="0.3" d="M39.3848 314.56L93.5317 283.3V284.163L39.3848 315.423V314.56Z" fill="#AB2421"/>
<path opacity="0.3" d="M39.3848 311.79L93.5317 280.53V281.39L39.3848 312.65V311.79Z" fill="#AB2421"/>
<path opacity="0.3" d="M39.3848 309.013L93.5317 277.753V278.616L39.3848 309.877V309.013Z" fill="#AB2421"/>
<path opacity="0.3" d="M39.3848 306.24L93.5317 274.98V275.843L39.3848 307.104V306.24Z" fill="#AB2421"/>
<path opacity="0.3" d="M39.3848 303.468L93.5317 272.208V273.071L39.3848 304.331V303.468Z" fill="#AB2421"/>
<path opacity="0.3" d="M39.3848 300.693L93.5317 269.433V270.296L39.3848 301.557V300.693Z" fill="#AB2421"/>
<path opacity="0.3" d="M39.3843 297.92L93.5312 266.66V267.524L39.3843 298.784V297.92Z" fill="#AB2421"/>
</g>
<path d="M109.585 257.536V358.922L98.6548 365.232V276.466L94.5075 278.862L39.3849 310.687V399.448L28.4542 405.758V304.376L109.585 257.536Z" fill="white"/>
<path d="M109.585 257.536V358.922L98.6548 365.232V276.466L94.5075 278.862L39.3849 310.687V399.448L28.4542 405.758V304.376L109.585 257.536Z" fill="white" stroke="#AB2421" stroke-width="1.5"/>
<path d="M41.1469 402.557C38.9342 403.835 38.9342 405.924 41.1469 407.198L191.843 492.344C194.056 493.622 197.672 493.622 199.889 492.344L243.097 467.398C245.31 466.119 245.31 464.031 243.097 462.752L92.4003 377.607C90.1917 376.328 86.5675 376.328 84.3548 377.607L41.1469 402.557Z" fill="#AB2421"/>
<path d="M114.112 419.087L146.834 436.1V432.127L114.112 415.114V419.087Z" fill="white"/>
<path d="M115.968 413.732L148.686 430.744L146.834 432.127L114.113 415.114L115.968 413.732Z" fill="white"/>
<path d="M146.576 436.042L178.259 454.914L178.492 450.95L146.804 432.077L146.576 436.042Z" fill="white"/>
<path d="M147.163 430.691L178.851 449.563L178.494 450.95L146.806 432.077L147.163 430.691Z" fill="white"/>
<path d="M60.8 404.487L58.9692 403.428L105.598 376.51L107.429 377.569L60.8 404.487Z" fill="white" stroke="#AB2421" stroke-width="1.5" stroke-linejoin="round"/>
<path d="M60.8569 406.59L59.0262 405.531V403.526L60.8569 404.584V406.59Z" fill="white" stroke="#AB2421" stroke-width="1.5" stroke-linejoin="round"/>
<path d="M60.8 406.492V404.487L107.429 377.569V379.57L60.8 406.492Z" fill="white" stroke="#AB2421" stroke-width="1.5" stroke-linejoin="round"/>
<path d="M109.49 395.86C109.49 396.362 109.851 396.574 110.291 396.333L120.259 390.812C120.699 390.567 121.06 389.956 121.06 389.454V381.458C121.06 380.952 120.699 380.744 120.259 380.985L110.291 386.506C109.851 386.751 109.49 387.366 109.49 387.868V395.86Z" fill="white"/>
<path d="M125.422 380.288L108.937 389.807L110.589 384.908L120.179 378.835L125.422 380.288Z" fill="white"/>
<path d="M113.392 385.719L118.66 382.896C120.266 381.982 122.475 382.119 124.92 383.531C129.827 386.362 133.804 393.253 133.804 398.916C133.804 401.768 132.795 403.765 131.172 404.686L125.904 407.509C124.297 408.418 122.089 408.277 119.652 406.87C114.745 404.039 110.772 397.147 110.772 391.485C110.768 388.637 111.768 386.636 113.392 385.719Z" fill="white"/>
<path d="M110.768 391.479C110.768 397.146 114.745 404.033 119.648 406.865C122.085 408.272 124.293 408.413 125.9 407.504C127.523 406.586 128.532 404.585 128.532 401.738C128.532 396.071 124.555 389.184 119.648 386.352C117.207 384.945 114.994 384.804 113.387 385.717C111.768 386.635 110.768 388.636 110.768 391.479Z" fill="white"/>
<path d="M111.308 392.14C111.308 397.301 114.932 403.582 119.404 406.16C123.875 408.742 127.495 406.65 127.495 401.485C127.495 396.321 123.87 390.048 119.404 387.466C114.937 384.884 111.308 386.976 111.308 392.14Z" fill="white"/>
<path d="M113.966 393.523C113.966 396.993 116.399 401.211 119.409 402.947C122.414 404.678 124.851 403.275 124.847 399.804C124.847 396.333 122.414 392.116 119.409 390.38C116.399 388.649 113.966 390.052 113.966 393.523Z" fill="#AB2421"/>
<path d="M114.455 393.805C114.455 396.96 116.667 400.8 119.403 402.378C122.135 403.956 124.352 402.677 124.352 399.522C124.352 396.367 122.135 392.531 119.403 390.953C116.671 389.372 114.455 390.654 114.455 393.805Z" fill="#AB2421"/>
<path d="M117.037 390.28C117.743 390.243 118.548 390.455 119.407 390.949C122.139 392.526 124.356 396.362 124.356 399.517C124.356 400.518 124.132 401.331 123.742 401.921C123.036 401.958 122.23 401.742 121.375 401.248C118.644 399.671 116.427 395.835 116.427 392.68C116.423 391.683 116.647 390.87 117.037 390.28Z" fill="#AB2421"/>
<path d="M117.68 390.313C118.216 390.392 118.797 390.6 119.407 390.953C122.139 392.53 124.356 396.366 124.356 399.521C124.356 400.231 124.244 400.85 124.036 401.356C123.285 401.547 122.367 401.385 121.375 400.812C118.855 399.355 116.809 395.814 116.809 392.9C116.805 391.745 117.132 390.865 117.68 390.313Z" fill="#AB2421"/>
<path d="M124.352 399.522C124.352 399.779 124.335 400.024 124.306 400.257C123.799 400.236 123.239 400.066 122.645 399.721C120.441 398.451 118.656 395.354 118.656 392.813C118.656 391.979 118.851 391.31 119.183 390.833C119.258 390.87 119.328 390.908 119.403 390.949C122.139 392.531 124.352 396.367 124.352 399.522Z" fill="#AB2421"/>
<path d="M119.527 394.822C119.527 396.006 120.357 397.442 121.379 398.036C122.404 398.625 123.234 398.148 123.234 396.965C123.234 395.781 122.408 394.345 121.379 393.756C120.357 393.158 119.527 393.635 119.527 394.822Z" fill="#AB2421"/>
<path d="M131.802 410.17C131.802 410.673 132.163 410.884 132.604 410.644L142.567 405.122C143.007 404.877 143.368 404.267 143.368 403.765V395.769C143.368 395.267 143.011 395.055 142.567 395.3L132.599 400.821C132.159 401.066 131.798 401.677 131.798 402.179V410.17H131.802Z" fill="white"/>
<path d="M142.265 394.64L147.533 391.817C149.14 390.903 151.349 391.04 153.794 392.452C158.697 395.283 162.678 402.174 162.678 407.837C162.678 410.689 161.669 412.686 160.046 413.603L154.778 416.426C153.171 417.335 150.962 417.194 148.526 415.787C143.619 412.952 139.646 406.064 139.646 400.398C139.642 397.558 140.646 395.561 142.265 394.64Z" fill="white"/>
<path d="M139.642 400.402C139.642 406.068 143.619 412.955 148.522 415.791C150.963 417.194 153.167 417.339 154.774 416.43C156.397 415.509 157.406 413.512 157.406 410.664C157.406 405.001 153.429 398.11 148.522 395.275C146.081 393.867 143.868 393.726 142.261 394.639C140.646 395.561 139.642 397.558 139.642 400.402Z" fill="white"/>
<path d="M140.186 401.062C140.186 406.226 143.811 412.503 148.282 415.081C152.753 417.663 156.377 415.571 156.377 410.407C156.377 405.242 152.753 398.969 148.282 396.387C143.811 393.805 140.186 395.897 140.186 401.062Z" fill="white"/>
<path d="M147.412 392.988L130.923 402.507L132.575 397.608L142.165 391.531L147.412 392.988Z" fill="white"/>
<path d="M111.714 382.534H111.71L111.768 382.501C111.863 382.443 111.954 382.389 112.05 382.335L122.615 376.249C124.566 375.319 127.165 375.564 130.017 377.208C136.083 380.711 141.002 389.23 141.002 396.238C141.002 396.362 140.998 396.483 140.994 396.607L130.644 402.581L129.121 401.701C129.125 401.576 129.129 401.456 129.129 401.331C129.129 395.295 124.89 387.956 119.664 384.942C114.437 381.924 110.203 384.369 110.203 390.405C110.203 390.534 110.207 390.658 110.211 390.787L108.687 389.907C108.683 389.782 108.679 389.654 108.679 389.529C108.687 386.137 109.837 383.725 111.714 382.534Z" fill="white"/>
<path d="M129.125 401.701C129.13 401.577 129.134 401.456 129.134 401.332C129.134 395.295 124.895 387.956 119.668 384.942C114.442 381.924 110.207 384.369 110.207 390.405C110.207 390.534 110.211 390.658 110.216 390.787L108.692 389.907C108.688 389.782 108.684 389.654 108.684 389.529C108.684 382.522 113.603 379.682 119.668 383.186C125.738 386.69 130.657 395.208 130.657 402.216C130.657 402.34 130.653 402.461 130.649 402.585L129.125 401.701Z" fill="white"/>
<path d="M135.379 398.412L140.647 395.589C142.253 394.676 144.466 394.813 146.903 396.225C151.81 399.056 155.787 405.947 155.787 411.614C155.787 414.462 154.778 416.463 153.155 417.384L147.887 420.207C146.28 421.116 144.072 420.975 141.635 419.568C136.732 416.737 132.755 409.849 132.755 404.183C132.755 401.331 133.756 399.338 135.379 398.412Z" fill="white"/>
<path d="M132.756 404.179C132.756 409.846 136.733 416.733 141.636 419.565C144.073 420.972 146.281 421.113 147.888 420.204C149.515 419.282 150.52 417.29 150.52 414.433C150.52 408.771 146.543 401.884 141.636 399.048C139.195 397.637 136.982 397.5 135.376 398.413C133.757 399.339 132.756 401.332 132.756 404.179Z" fill="white"/>
<path d="M133.298 404.839C133.298 409.999 136.922 416.276 141.393 418.858C145.864 421.44 149.488 419.348 149.488 414.184C149.488 409.023 145.864 402.746 141.393 400.164C136.922 397.586 133.298 399.674 133.298 404.839Z" fill="white"/>
<path d="M135.953 406.221C135.953 409.688 138.39 413.91 141.395 415.645C144.401 417.38 146.838 415.973 146.833 412.503C146.833 409.032 144.401 404.81 141.395 403.079C138.39 401.344 135.953 402.751 135.953 406.221Z" fill="#AB2421"/>
<path d="M136.442 406.504C136.442 409.663 138.659 413.495 141.391 415.077C144.122 416.654 146.339 415.375 146.339 412.22C146.339 409.065 144.122 405.225 141.391 403.648C138.659 402.07 136.442 403.349 136.442 406.504Z" fill="#AB2421"/>
<path d="M139.025 402.979C139.726 402.942 140.536 403.154 141.391 403.652C144.122 405.229 146.339 409.065 146.339 412.224C146.339 413.225 146.115 414.035 145.721 414.628C145.019 414.661 144.214 414.454 143.354 413.956C140.623 412.378 138.406 408.542 138.406 405.383C138.41 404.378 138.634 403.569 139.025 402.979Z" fill="#AB2421"/>
<path d="M139.668 403.013C140.208 403.092 140.789 403.299 141.395 403.652C144.127 405.23 146.344 409.066 146.344 412.225C146.344 412.935 146.232 413.549 146.024 414.06C145.273 414.251 144.355 414.093 143.363 413.516C140.839 412.063 138.796 408.518 138.796 405.603C138.792 404.445 139.12 403.565 139.668 403.013Z" fill="#AB2421"/>
<path d="M146.344 412.22C146.344 412.478 146.327 412.723 146.298 412.955C145.792 412.93 145.231 412.76 144.638 412.42C142.437 411.149 140.652 408.057 140.652 405.512C140.652 404.681 140.847 404.013 141.179 403.531C141.25 403.569 141.325 403.61 141.399 403.652C144.127 405.225 146.344 409.065 146.344 412.22Z" fill="#AB2421"/>
<path d="M141.515 407.521C141.515 408.705 142.345 410.141 143.366 410.73C144.392 411.32 145.222 410.843 145.222 409.659C145.222 408.48 144.392 407.04 143.366 406.446C142.345 405.857 141.515 406.338 141.515 407.521Z" fill="#AB2421"/>
<path d="M133.701 395.229H133.696L133.754 395.195C133.85 395.137 133.941 395.083 134.041 395.034L144.602 388.943C146.557 388.013 149.152 388.258 152.004 389.902C158.073 393.406 162.989 401.925 162.989 408.932C162.989 409.061 162.985 409.182 162.985 409.302L152.635 415.276L151.112 414.396C151.116 414.275 151.12 414.155 151.12 414.026C151.12 407.99 146.881 400.65 141.659 397.636C136.432 394.618 132.194 397.064 132.194 403.1C132.194 403.224 132.198 403.353 132.202 403.478L130.678 402.597C130.674 402.473 130.67 402.344 130.67 402.22C130.67 398.836 131.828 396.424 133.701 395.229Z" fill="white"/>
<path d="M151.117 414.4C151.121 414.28 151.125 414.159 151.125 414.031C151.125 407.994 146.886 400.655 141.664 397.641C136.437 394.623 132.199 397.068 132.199 403.104C132.199 403.229 132.203 403.357 132.207 403.482L130.683 402.602C130.679 402.477 130.675 402.348 130.675 402.224C130.675 395.216 135.594 392.377 141.664 395.881C147.729 399.384 152.648 407.903 152.648 414.911C152.648 415.035 152.644 415.156 152.64 415.28L151.117 414.4Z" fill="white"/>
<path d="M97.6306 379.354L110.857 371.715L112.327 372.562L99.0961 380.201L97.6306 379.354Z" fill="white"/>
<path d="M99.0961 380.201L112.327 372.562V379.852L99.0961 387.491V380.201Z" fill="white"/>
<path d="M189.614 438.147L90.7233 381.052L92.7824 379.861L191.673 436.959L189.614 438.147Z" fill="white"/>
<path d="M191.673 436.968L92.7824 379.869V375.058L191.673 432.156V436.968Z" fill="white"/>
<path d="M85.2606 383.697L94.8462 378.163V381.526L85.2606 387.06V383.697Z" fill="white"/>
<path d="M87.9305 385.307L97.5161 379.773V383.136L87.9305 388.669V385.307Z" fill="white"/>
<path d="M154.909 423.322L164.495 417.788L166.554 418.976L156.968 424.514L154.909 423.322Z" fill="white"/>
<path d="M156.968 424.513L166.554 418.975V422.338L156.968 427.872V424.513Z" fill="white"/>
<path d="M133.783 411.445L143.368 405.907L145.427 407.094L135.842 412.632L133.783 411.445Z" fill="white"/>
<path d="M135.842 412.632L145.427 407.094V410.457L135.842 415.995V412.632Z" fill="white"/>
<path d="M110.791 398.459L120.377 392.925L122.44 394.112L112.85 399.65L110.791 398.459Z" fill="white"/>
<path d="M112.85 399.651L122.44 394.113V397.476L112.85 403.014V399.651Z" fill="white"/>
<path d="M98.8642 380.101C99.0054 380.035 99.1922 380.055 99.3915 380.172L110.961 386.851C111.397 387.104 111.754 387.719 111.754 388.225V393.282C111.754 393.576 111.63 393.767 111.443 393.83L101.534 399.447C101.679 399.364 101.766 399.185 101.766 398.932V393.88C101.766 393.377 101.409 392.759 100.973 392.51L89.4032 385.826C89.1956 385.705 89.0046 385.693 88.8635 385.764L98.8642 380.101Z" fill="#AB2421"/>
<path d="M83.1973 382.506L92.7871 376.972L94.8462 378.163L85.2606 383.697L83.1973 382.506Z" fill="white"/>
<path d="M175.87 437.507L76.9786 380.412L79.0378 379.221L177.929 436.315L175.87 437.507Z" fill="white"/>
<path d="M175.87 440.126L76.9787 383.032V380.412L175.87 437.507V440.126Z" fill="white"/>
<path d="M78.0165 383.626L175.87 440.127V448.417L128.88 421.283L122.54 420.831L90.724 402.461L88.9721 401.767L78.0165 395.441V383.626Z" fill="white"/>
<path d="M78.0165 383.626L175.87 440.127V442.082L78.0165 385.585V383.626Z" fill="white"/>
<path d="M192.699 427.747L93.808 370.648L95.8712 369.461L194.762 426.559L192.699 427.747Z" fill="white"/>
<path d="M191.673 432.156L92.7819 375.058L94.841 373.87L193.732 430.965L191.673 432.156Z" fill="white"/>
<path d="M192.699 430.367L93.8078 373.273V370.649L192.699 427.748V430.367Z" fill="white"/>
<path d="M85.8714 384.12L95.457 378.586L97.5161 379.774L87.9305 385.308L85.8714 384.12Z" fill="white"/>
<path d="M111.867 413.766L95.3773 423.285L97.0295 418.386L106.619 412.309L111.867 413.766Z" fill="white"/>
<path d="M76.1678 403.308H76.1636L76.2218 403.275C76.3131 403.216 76.4086 403.162 76.504 403.109L87.0694 397.018C89.0247 396.088 91.6194 396.333 94.4714 397.982C100.541 401.485 105.456 410.004 105.456 417.007C105.456 417.132 105.452 417.252 105.448 417.377L95.0983 423.351L93.5747 422.475C93.5788 422.35 93.583 422.23 93.583 422.105C93.583 416.069 89.3444 408.734 84.1177 405.711C78.8911 402.693 74.6525 405.143 74.6525 411.175C74.6525 411.299 74.6567 411.424 74.6608 411.552L73.1373 410.677C73.1331 410.548 73.1289 410.423 73.1289 410.295C73.1372 406.915 74.2913 404.503 76.1678 403.308Z" fill="white"/>
<path d="M77.4044 406.369L82.2408 403.487C83.8599 402.566 86.0892 402.707 88.551 404.127C93.4995 406.983 97.5098 413.928 97.5098 419.641C97.5098 422.513 96.4968 424.531 94.857 425.457L90.0206 428.338C88.4016 429.255 86.1764 429.114 83.7188 427.69C78.7703 424.834 74.76 417.889 74.76 412.176C74.76 409.312 75.7729 407.298 77.4044 406.369Z" fill="white"/>
<path d="M74.7604 412.181C74.7604 417.894 78.7707 424.839 83.7192 427.695C86.1769 429.115 88.402 429.256 90.0211 428.343C91.6609 427.413 92.6738 425.4 92.6738 422.527C92.6738 416.814 88.6636 409.869 83.7151 407.013C81.2533 405.593 79.024 405.452 77.4049 406.374C75.7734 407.299 74.7604 409.313 74.7604 412.181Z" fill="#AB2421"/>
<path d="M77.8949 414.028C77.8949 417.582 80.3899 421.903 83.4703 423.68C86.5465 425.457 89.0415 424.016 89.0415 420.463C89.0415 416.909 86.5465 412.588 83.4703 410.811C80.3899 409.03 77.8949 410.47 77.8949 414.028Z" fill="white"/>
<path d="M83.4655 411.238C83.7353 411.396 83.9969 411.579 84.2584 411.774C84.109 411.67 83.9554 411.571 83.8018 411.483C81.1573 409.96 79.0152 411.193 79.0152 414.248C79.0152 417.3 81.1573 421.007 83.8018 422.534C86.4421 424.058 88.5842 422.821 88.5842 419.774C88.5842 419.408 88.551 419.035 88.4929 418.657C88.6008 419.197 88.6631 419.732 88.6631 420.247C88.6631 423.564 86.3341 424.905 83.4655 423.249C80.5927 421.592 78.2638 417.557 78.2638 414.244C78.2679 410.927 80.5927 409.582 83.4655 411.238Z" fill="#AB2421"/>
<path d="M79.318 414.373C79.318 417.283 81.3605 420.824 83.8846 422.281C86.4087 423.739 88.4512 422.555 88.4512 419.645C88.4512 416.735 86.4087 413.194 83.8846 411.737C81.3605 410.284 79.318 411.463 79.318 414.373Z" fill="#AB2421"/>
<path d="M81.088 417.017C81.088 418.155 81.8851 419.537 82.8731 420.106C83.8611 420.675 84.6582 420.214 84.6582 419.076C84.6582 417.939 83.857 416.556 82.8731 415.988C81.8851 415.419 81.088 415.88 81.088 417.017Z" fill="#AB2421"/>
<path d="M105.363 415.688L110.2 412.807C111.819 411.885 114.048 412.026 116.51 413.446C121.458 416.302 125.469 423.248 125.469 428.96C125.469 431.833 124.456 433.85 122.816 434.776L117.98 437.657C116.361 438.575 114.135 438.433 111.678 437.01C106.729 434.153 102.719 427.208 102.719 421.496C102.719 418.631 103.732 416.618 105.363 415.688Z" fill="white" stroke="#AB2421" stroke-width="1.5"/>
<path d="M102.718 421.5C102.718 427.212 106.729 434.158 111.677 437.014C114.135 438.433 116.36 438.575 117.979 437.661C119.619 436.731 120.632 434.718 120.632 431.845C120.632 426.133 116.622 419.188 111.673 416.331C109.211 414.912 106.982 414.77 105.363 415.692C103.731 416.618 102.718 418.631 102.718 421.5Z" fill="#AB2421"/>
<path d="M105.852 423.346C105.852 426.9 108.347 431.222 111.428 432.998C114.504 434.775 116.999 433.335 116.999 429.781C116.999 426.228 114.504 421.906 111.428 420.129C108.347 418.348 105.852 419.789 105.852 423.346Z" fill="white"/>
<path d="M111.425 420.557C111.695 420.715 111.956 420.898 112.218 421.093C112.068 420.989 111.915 420.889 111.761 420.802C109.117 419.279 106.975 420.512 106.975 423.567C106.975 426.618 109.117 430.326 111.761 431.853C114.402 433.377 116.544 432.14 116.544 429.093C116.544 428.727 116.51 428.354 116.452 427.976C116.56 428.516 116.623 429.051 116.623 429.566C116.623 432.883 114.294 434.224 111.425 432.567C108.552 430.911 106.223 426.876 106.223 423.563C106.227 420.246 108.552 418.901 111.425 420.557Z" fill="#AB2421"/>
<path d="M107.276 423.692C107.276 426.602 109.319 430.143 111.843 431.6C114.367 433.057 116.409 431.874 116.409 428.964C116.409 426.054 114.367 422.513 111.843 421.056C109.319 419.603 107.276 420.782 107.276 423.692Z" fill="#AB2421"/>
<path d="M109.046 426.336C109.046 427.473 109.843 428.856 110.831 429.425C111.819 429.993 112.616 429.533 112.616 428.395C112.616 427.258 111.815 425.875 110.831 425.306C109.843 424.738 109.046 425.198 109.046 426.336Z" fill="#AB2421"/>
<path d="M93.5809 422.478C93.5851 422.354 93.5892 422.233 93.5892 422.109C93.5892 416.073 89.3506 408.737 84.124 405.715C78.8973 402.697 74.6588 405.146 74.6588 411.178C74.6588 411.303 74.6629 411.427 74.6671 411.556L73.1435 410.68C73.1393 410.551 73.1352 410.427 73.1352 410.298C73.1352 403.291 78.0546 400.451 84.124 403.955C90.1934 407.459 95.1128 415.977 95.1128 422.981C95.1128 423.109 95.1086 423.226 95.1045 423.35L93.5809 422.478Z" fill="#AB2421"/>
<path d="M99.1496 418.794L103.986 415.913C105.605 414.991 107.834 415.132 110.296 416.552C115.245 419.408 119.255 426.354 119.255 432.066C119.255 434.939 118.242 436.956 116.602 437.882L111.766 440.763C110.147 441.681 107.922 441.539 105.464 440.115C100.515 437.259 96.5051 430.314 96.5051 424.602C96.5051 421.737 97.5181 419.724 99.1496 418.794Z" fill="white" stroke="#AB2421" stroke-width="1.5"/>
<path d="M96.5056 424.606C96.5056 430.318 100.516 437.263 105.464 440.119C107.922 441.539 110.147 441.68 111.766 440.767C113.406 439.837 114.419 437.824 114.419 434.951C114.419 429.239 110.409 422.293 105.46 419.437C102.998 418.017 100.769 417.876 99.15 418.798C97.5185 419.723 96.5056 421.737 96.5056 424.606Z" fill="#AB2421"/>
<path d="M99.6401 426.453C99.6401 430.007 102.135 434.329 105.215 436.105C108.292 437.882 110.787 436.442 110.787 432.888C110.787 429.334 108.292 425.013 105.215 423.236C102.135 421.455 99.6401 422.896 99.6401 426.453Z" fill="white"/>
<path d="M105.211 423.663C105.48 423.821 105.742 424.004 106.004 424.199C105.854 424.095 105.7 423.995 105.547 423.908C102.902 422.385 100.76 423.618 100.76 426.673C100.76 429.724 102.902 433.432 105.547 434.959C108.187 436.483 110.329 435.246 110.329 432.199C110.329 431.833 110.296 431.46 110.238 431.082C110.346 431.622 110.408 432.157 110.408 432.672C110.408 435.989 108.079 437.33 105.211 435.673C102.338 434.017 100.009 429.982 100.009 426.669C100.013 423.352 102.338 422.007 105.211 423.663Z" fill="#AB2421"/>
<path d="M101.064 426.798C101.064 429.708 103.106 433.249 105.63 434.706C108.154 436.163 110.197 434.98 110.197 432.07C110.197 429.16 108.154 425.619 105.63 424.162C103.106 422.709 101.064 423.888 101.064 426.798Z" fill="#AB2421"/>
<path d="M102.833 429.443C102.833 430.58 103.63 431.963 104.618 432.532C105.606 433.1 106.403 432.639 106.403 431.502C106.403 430.365 105.602 428.982 104.618 428.413C103.63 427.845 102.833 428.305 102.833 429.443Z" fill="#AB2421"/>
<path d="M98.1541 416.012H98.15L98.2081 415.978C98.3036 415.924 98.3991 415.866 98.4945 415.817L109.06 409.726C111.011 408.796 113.61 409.041 116.462 410.69C122.531 414.189 127.451 422.712 127.451 429.715C127.451 429.84 127.442 429.965 127.442 430.085L117.093 436.059L115.569 435.179C115.573 435.058 115.578 434.934 115.578 434.809C115.578 428.773 111.339 421.438 106.112 418.419C100.886 415.401 96.6513 417.847 96.6513 423.883C96.6513 424.007 96.6555 424.136 96.6596 424.265L95.136 423.385C95.1319 423.256 95.1277 423.135 95.1277 423.007C95.1236 419.611 96.2777 417.203 98.1541 416.012Z" fill="white" stroke="#AB2421" stroke-width="1.5"/>
<path d="M115.565 435.178C115.569 435.058 115.573 434.933 115.573 434.809C115.573 428.773 111.335 421.437 106.108 418.419C100.881 415.401 96.6468 417.846 96.6468 423.882C96.6468 424.007 96.6509 424.135 96.6551 424.264L95.1315 423.384C95.1274 423.255 95.1232 423.135 95.1232 423.006C95.1232 415.999 100.043 413.163 106.112 416.663C112.181 420.167 117.097 428.685 117.097 435.693C117.097 435.818 117.093 435.938 117.088 436.063L115.565 435.178Z" fill="#AB2421"/>
<path d="M67.8679 397.57L81.0985 389.931L82.564 390.778L69.3334 398.417L67.8679 397.57Z" fill="white"/>
<path d="M136.577 425.473C137.905 424.705 140.056 424.705 141.384 425.473C142.048 425.855 142.38 426.357 142.38 426.859V435.648C142.38 436.15 142.048 436.653 141.384 437.034C140.056 437.798 137.905 437.798 136.577 437.034C135.912 436.653 135.58 436.15 135.58 435.648V426.859C135.58 426.357 135.912 425.855 136.577 425.473Z" fill="white"/>
<path d="M136.577 425.473C135.248 426.237 135.248 427.482 136.577 428.246C137.905 429.014 140.056 429.014 141.384 428.246C142.712 427.478 142.712 426.237 141.384 425.473C140.056 424.705 137.905 424.705 136.577 425.473Z" fill="white"/>
<path d="M142.193 428.171C143.521 427.403 145.672 427.403 147 428.171C147.664 428.553 147.997 429.059 147.997 429.558V438.346C147.997 438.848 147.664 439.351 147 439.733C145.672 440.497 143.521 440.497 142.193 439.733C141.529 439.351 141.197 438.848 141.197 438.346V429.558C141.197 429.055 141.529 428.553 142.193 428.171Z" fill="white"/>
<path d="M142.193 428.171C140.864 428.939 140.864 430.18 142.193 430.948C143.521 431.712 145.672 431.712 147 430.948C148.329 430.184 148.329 428.939 147 428.171C145.672 427.403 143.521 427.403 142.193 428.171Z" fill="white"/>
<path d="M140.25 435.818L149.503 430.475C149.752 430.33 149.977 430.338 150.122 430.467V430.463L169.202 441.439C169.355 441.514 169.455 441.7 169.455 441.962V450.601C169.455 451.103 169.098 451.722 168.662 451.975L159.404 457.318C159.189 457.447 158.989 457.455 158.844 457.372L139.698 446.346C139.689 446.338 139.681 446.333 139.673 446.329L139.66 446.325C139.532 446.234 139.449 446.068 139.449 445.831V437.192C139.457 436.686 139.814 436.067 140.25 435.818Z" fill="white" stroke="#AB2421" stroke-width="1.5"/>
<path d="M92.0203 296.044L208.173 363.11V421.769L158.842 450.103L42.689 383.041V324.373L92.0203 296.044Z" fill="#AB2421"/>
<path d="M43.8058 325.021L93.2617 296.766L206.749 362.288L157.546 390.543V442.132L43.785 376.453V325.004L43.8058 325.021Z" fill="white" stroke="#AB2421" stroke-width="1.5"/>
<g opacity="0.2">
<path opacity="0.1" d="M43.7852 325.004V383.672L42.6892 383.041V324.373L43.7852 325.004Z" fill="white"/>
</g>
<path d="M157.546 390.543V442.132L43.785 376.453L43.8058 325.021L157.546 390.543Z" fill="white" stroke="#AB2421" stroke-width="1.5"/>
<path opacity="0.2" d="M43.7852 325.004V383.672L43.4987 383.506V324.842L43.7852 325.004Z" fill="white"/>
<path d="M165.718 464.006L166.498 465.347L169.454 464.006L187.861 471.009L187.226 458.144L176.026 452.909L167.158 453.972L165.718 464.006Z" fill="#AB2421"/>
<path d="M167.469 469.44C167.469 469.942 167.83 470.154 168.27 469.909L178.238 464.388C178.678 464.143 179.039 463.532 179.039 463.03V446.848C179.039 446.345 178.682 446.134 178.242 446.375L168.274 451.896C167.834 452.141 167.473 452.751 167.473 453.253V469.44H167.469Z" fill="#AB2421"/>
<path d="M171.552 460.137L176.388 457.255C178.007 456.334 180.237 456.475 182.698 457.895C187.647 460.751 191.657 467.696 191.657 473.409C191.657 476.281 190.644 478.299 189.004 479.225L184.168 482.106C182.549 483.023 180.324 482.882 177.866 481.458C172.918 478.602 168.907 471.657 168.907 465.944C168.907 463.08 169.92 461.066 171.552 460.137Z" fill="white" stroke="#AB2421" stroke-width="1.5"/>
<path d="M168.909 465.949C168.909 471.661 172.919 478.606 177.868 481.462C180.325 482.882 182.55 483.023 184.17 482.11C185.809 481.18 186.822 479.167 186.822 476.294C186.822 470.582 182.812 463.636 177.864 460.78C175.402 459.36 173.172 459.219 171.553 460.141C169.922 461.067 168.909 463.08 168.909 465.949Z" fill="#AB2421"/>
<path d="M172.042 467.796C172.042 471.349 174.537 475.671 177.617 477.448C180.693 479.224 183.188 477.784 183.188 474.23C183.188 470.677 180.693 466.355 177.617 464.578C174.537 462.797 172.042 464.238 172.042 467.796Z" fill="white"/>
<path d="M177.613 465.006C177.883 465.164 178.145 465.346 178.406 465.542C178.257 465.438 178.103 465.338 177.95 465.251C175.305 463.727 173.163 464.96 173.163 468.016C173.163 471.067 175.305 474.774 177.95 476.302C180.59 477.826 182.732 476.588 182.732 473.541C182.732 473.176 182.699 472.802 182.641 472.425C182.749 472.964 182.811 473.5 182.811 474.015C182.811 477.332 180.482 478.673 177.613 477.016C174.741 475.36 172.412 471.324 172.412 468.012C172.416 464.695 174.741 463.35 177.613 465.006Z" fill="#AB2421"/>
<path d="M173.466 468.14C173.466 471.05 175.509 474.592 178.033 476.049C180.557 477.506 182.6 476.323 182.6 473.413C182.6 470.502 180.557 466.961 178.033 465.504C175.509 464.051 173.466 465.23 173.466 468.14Z" fill="#AB2421"/>
<path d="M175.236 470.785C175.236 471.922 176.033 473.305 177.021 473.874C178.009 474.442 178.806 473.982 178.806 472.844C178.806 471.707 178.005 470.324 177.021 469.755C176.033 469.187 175.236 469.647 175.236 470.785Z" fill="#AB2421"/>
<path d="M238.214 421.865C238.214 422.367 238.571 422.575 239.007 422.321L242.125 420.52C242.56 420.266 242.917 419.652 242.917 419.15V406.272C242.917 405.77 242.56 405.562 242.125 405.815L239.007 407.613C238.571 407.862 238.214 408.485 238.214 408.983V421.865Z" fill="#AB2421"/>
<path d="M164.253 464.362C164.253 464.362 164.569 456.068 164.735 454.69C164.901 453.316 165.1 452.303 165.399 452.12C165.698 451.937 168.5 450.314 168.5 450.314L168.882 449.368L165.719 447.333L167.541 444.996L168.649 443.888V440.998L168.014 440.683C168.014 440.683 169.363 419.386 169.559 416.654C169.758 413.923 171.144 410.477 172.448 409.331C173.752 408.181 183.528 402.166 189.627 398.405C195.721 394.643 206.012 388.944 208.229 387.798C210.446 386.648 210.923 387.163 211.828 387.798C212.742 388.429 234.417 402.143 236.058 403.836C238.853 404.768 238.853 404.768 240.975 405.856C240.975 405.856 241.204 409.713 241.108 410.788C241.042 411.515 240.917 412.366 240.058 413.35C240.822 418.244 242.071 427.751 242.071 427.751L242.3 434.032C243.437 434.584 244.155 436.697 244.218 437.254C244.284 437.806 244.579 441.123 244.218 442.783C243.861 444.444 241.548 446.233 241.548 446.233C242.819 446.59 242.528 449.812 242.69 451.991C242.852 454.171 242.819 456.678 241.357 458.144C239.892 459.609 234.786 463.482 234.786 463.482C235.309 464.815 233.843 466.019 233.843 466.019C233.843 466.019 216.075 476.725 215.59 476.725C215.1 476.725 213.115 476.107 213.115 476.107C213.115 476.107 207.424 479.1 204.592 480.009C201.761 480.918 199.22 479.357 199.22 479.357V477.215L194.002 474.521V473.824L191.233 472.283L189.73 473.184L187.422 471.972C187.422 471.972 185.894 465.658 184.549 461.834C183.204 458.011 180.647 455.669 178.517 454.212C176.388 452.759 172.647 450.684 172.299 450.605C171.95 450.526 171.518 450.364 170.762 450.335L169.173 453.349L168.284 454.237C168.284 454.237 167.234 456.392 166.802 459.812C166.37 463.233 166.507 465.338 166.507 465.338L164.253 464.362Z" fill="white" stroke="#AB2421" stroke-width="1.5"/>
<path d="M171.291 410.901C170.42 412.478 169.697 414.745 169.556 416.659C169.357 419.391 168.012 440.683 168.016 440.667L168.651 440.982V443.872L198.222 460.759V463.059L183.758 455.039C183.758 455.039 185.83 458.58 186.245 459.219L191.48 462.308C191.48 462.308 192.422 465.957 192.912 468.896L199.218 472.276V475.148L190.388 470.441V471.765L191.231 472.267L194 473.807V474.505L199.218 477.199V479.341C199.218 479.341 201.759 480.902 204.59 479.993C207.421 479.084 213.113 476.091 213.113 476.091C213.113 476.091 215.097 476.709 215.587 476.709C216.073 476.709 233.841 466.003 233.841 466.003C233.841 466.003 235.306 464.799 234.783 463.466C234.783 463.466 239.89 459.593 241.355 458.127C242.659 456.82 242.825 454.686 242.733 452.693C242.409 453.989 241.849 454.57 240.682 455.599C239.541 456.612 237.328 458.675 236.917 458.763C236.506 458.85 236.71 457.883 236.743 457.571C236.78 457.256 237.669 456.413 237.669 456.413L240.915 452.772L242.044 449.376C242.044 449.376 242.302 449.131 242.571 448.886C242.542 448.492 242.509 448.11 242.451 447.77C242.339 448.567 241.625 449.38 240.363 450.572C238.702 452.137 236.506 453.602 236.506 453.602C235.481 454.541 233.613 455.815 231.886 456.845C230.067 457.928 217.248 465.654 216.056 466.306C215.371 466.679 213.814 467.659 212.295 467.979C208.982 469.702 204.158 471.366 202.494 471.366C201.095 471.366 199.218 470.623 199.218 470.623L199.853 468.543C201.215 469.025 202.552 469.411 203.797 469.166C207.562 468.423 209.426 467.198 209.426 467.198C209.397 467.165 209.368 467.136 209.343 467.099L211.73 465.525C212.042 465.434 212.37 465.293 212.706 465.127C213.785 464.587 222.022 459.813 224.907 458.028C227.792 456.247 235.427 451.618 237.357 450.144C237.76 449.837 238.092 449.451 238.37 449.036C238.37 449.036 238.271 449.505 238.1 450.14C241.031 447.956 241.546 446.23 241.546 446.23C241.546 446.23 243.858 444.44 244.215 442.78C244.543 441.26 244.327 438.346 244.236 437.449C244.132 438.01 243.987 438.487 243.8 438.475C243.36 438.441 241.534 438.545 240.774 438.782C240.973 438.583 242.297 436.706 242.297 436.362V434.028L242.069 427.747C242.069 427.747 241.998 427.224 241.882 426.369L240.774 410.049L211.419 431.143C210.751 431.542 210.248 431.837 209.962 431.994C207.65 433.29 202.959 435.776 201.58 433.709C200.206 431.646 200.048 428.005 200.048 428.005L171.291 410.901Z" fill="white" stroke="#AB2421" stroke-width="1.5" stroke-linejoin="round"/>
<g opacity="0.3">
<path opacity="0.3" d="M242.437 454.3C242.516 454.142 242.549 454.042 242.549 454.042C242.549 454.042 242.549 454.109 242.541 454.25L242.437 454.3Z" fill="#AB2421"/>
</g>
<path opacity="0.2" d="M243.89 439.23C243.919 438.57 243.857 438.467 243.857 438.467C244.015 438.392 244.139 437.956 244.235 437.449C244.326 438.35 244.542 441.26 244.214 442.784C243.857 444.445 241.545 446.234 241.545 446.234C241.47 446.28 241.399 446.325 241.324 446.367C242.508 445.167 242.923 444.054 243.188 443.116C243.475 442.103 243.865 439.89 243.89 439.23Z" fill="white"/>
<g opacity="0.2">
<path opacity="0.2" d="M198.618 433.282C198.647 433.452 198.668 433.626 198.676 433.805C198.66 433.626 198.639 433.452 198.618 433.282Z" fill="white"/>
</g>
<path d="M205.24 429.325C211.172 426.581 232.656 413.188 235.707 410.901C238.152 409.066 239.813 408.41 240.971 405.861C240.971 405.861 241.2 409.717 241.104 410.793C241.038 411.519 240.913 412.37 240.054 413.354C240.054 413.354 238.526 414.571 233.789 417.526C229.057 420.482 212.272 430.707 209.96 431.994C207.648 433.285 202.957 435.772 201.578 433.709C200.823 432.575 200.433 430.964 200.238 429.744C201.304 430.134 203.023 430.35 205.24 429.325Z" fill="#AB2421"/>
<g opacity="0.2">
<path opacity="0.2" d="M199.134 458.974L199.296 458.966L198.972 450.248L199.645 449.102L199.64 449.073C199.62 448.915 197.585 433.19 197.527 432.472C197.469 431.704 196.963 430.442 196.444 429.765L196.315 429.865C196.817 430.52 197.307 431.745 197.361 432.484C197.415 433.198 199.346 448.106 199.47 449.069L198.802 450.206V450.227L199.134 458.974Z" fill="white"/>
</g>
<g opacity="0.2">
<path opacity="0.2" d="M207.07 458.99L207.228 458.953L205.663 452.518L205.505 452.56L207.07 458.99Z" fill="white"/>
</g>
<g opacity="0.2">
<path opacity="0.2" d="M240.707 439.35L241.093 431.396L240.935 431.392L240.545 439.342L240.707 439.35Z" fill="white"/>
</g>
<g opacity="0.2">
<path opacity="0.2" d="M194.211 427.764L194.763 424.829C194.763 424.829 195.216 423.874 196.063 423.359C196.237 423.255 196.806 422.886 197.665 422.325C201.215 420.021 209.891 414.902 215.342 411.768C222.096 407.882 230.985 402.544 231.076 402.49C231.088 402.481 232.458 401.742 232.932 401.659L232.907 401.502C232.409 401.589 231.055 402.32 231.001 402.349C230.906 402.403 221.98 407.762 215.263 411.627C209.812 414.765 201.132 419.884 197.578 422.192C196.719 422.749 196.154 423.114 195.98 423.222C195.087 423.762 194.631 424.737 194.614 424.779L194.054 427.735L194.211 427.764Z" fill="white"/>
</g>
<path d="M192.882 449.501C193.092 449.501 193.313 449.443 193.535 449.333L196.132 448.016C196.287 447.939 196.342 447.763 196.25 447.628C196.157 447.492 195.961 447.444 195.806 447.525L193.209 448.841C193.025 448.937 192.857 448.959 192.757 448.907C192.657 448.856 192.598 448.72 192.598 448.533V432.888C192.598 432.375 193.025 431.726 193.535 431.465L196.132 430.153C196.287 430.076 196.342 429.9 196.25 429.764C196.157 429.625 195.961 429.581 195.806 429.658L193.209 430.974C192.502 431.33 191.945 432.173 191.945 432.888V448.533C191.945 448.929 192.125 449.245 192.435 449.402C192.569 449.468 192.719 449.501 192.882 449.501Z" fill="#AB2421" stroke="#AB2421" stroke-width="1.5"/>
<path d="M188.84 448.376C188.84 448.824 189.17 449.009 189.573 448.783L192.456 447.181C192.859 446.955 193.189 446.407 193.189 445.955V434.473C193.189 434.025 192.859 433.84 192.456 434.065L189.573 435.668C189.17 435.89 188.84 436.442 188.84 436.894V448.376Z" fill="#AB2421"/>
<path d="M203.129 453.228L202.599 453.758L202.413 453.572L202.384 453.311L203.129 453.228ZM242.371 434.284C236.932 437.859 228.646 443.206 221.47 447.63C217.883 449.841 214.566 451.827 212.016 453.245C210.743 453.954 209.65 454.528 208.805 454.918C208.384 455.113 208.01 455.269 207.698 455.374C207.428 455.465 207.076 455.564 206.764 455.525L206.95 454.037C206.886 454.029 206.941 454.046 207.22 453.952C207.458 453.872 207.777 453.741 208.175 453.557C208.97 453.189 210.025 452.637 211.287 451.935C213.807 450.532 217.102 448.561 220.683 446.353C227.843 441.939 236.115 436.601 241.548 433.031L242.371 434.284ZM206.764 455.525C204.615 455.257 203.134 454.294 202.599 453.758L203.66 452.697C203.953 452.99 205.123 453.808 206.95 454.037L206.764 455.525ZM202.384 453.311L199.899 430.944L201.389 430.779L203.875 453.145L202.384 453.311Z" fill="#AB2421"/>
<line y1="-0.75" x2="27.8194" y2="-0.75" transform="matrix(-0.870978 -0.491321 -0.491321 0.870978 197.538 430.862)" stroke="#AB2421" stroke-width="1.5"/>
<path d="M197.538 429.619L199.401 450.121" stroke="#AB2421" stroke-width="1.5"/>
<line x1="94.0128" y1="169.866" x2="-38.3207" y2="285.425" stroke="#AB2421" stroke-width="1.5"/>
<line x1="77.2379" y1="162.411" x2="-55.0956" y2="277.97" stroke="#AB2421" stroke-width="1.5"/>
<line x1="65.4337" y1="153.713" x2="-66.8998" y2="269.271" stroke="#AB2421" stroke-width="1.5"/>
<line x1="50.5221" y1="148.121" x2="-81.8114" y2="263.68" stroke="#AB2421" stroke-width="1.5"/>
<line x1="38.0963" y1="137.559" x2="-94.2372" y2="253.118" stroke="#AB2421" stroke-width="1.5"/>
<line x1="23.8068" y1="130.104" x2="-108.527" y2="245.663" stroke="#AB2421" stroke-width="1.5"/>
<line x1="9.51724" y1="122.027" x2="-122.816" y2="237.586" stroke="#AB2421" stroke-width="1.5"/>
</svg>
